<?xml version="1.0" encoding="UTF-8"?>
<!DOCTYPE svg PUBLIC "-//W3C//DTD SVG 1.1//EN" "http://www.w3.org/Graphics/SVG/1.1/DTD/svg11.dtd">
<!-- Creator: CorelDRAW -->
<svg xmlns="http://www.w3.org/2000/svg" xml:space="preserve" width="184mm" height="184mm" style="shape-rendering:geometricPrecision; text-rendering:geometricPrecision; image-rendering:optimizeQuality; fill-rule:evenodd; clip-rule:evenodd"
viewBox="13 56.5 184 184"
 xmlns:xlink="http://www.w3.org/1999/xlink">
 <defs>
  <style type="text/css">
   <![CDATA[
    .str0 {stroke:#8A8A8A;stroke-width:1.7718;stroke-linecap:round;stroke-linejoin:round}
    .fil0 {fill:none;fill-rule:nonzero}
    .fil1 {fill:#3D5980}
    .fil9 {fill:white}
    .fil10 {fill:white;fill-rule:nonzero}
    .fil5 {fill:#039E9C;fill-opacity:0.670588}
    .fil6 {fill:#12A354;fill-opacity:0.670588}
    .fil4 {fill:#383085;fill-opacity:0.670588}
    .fil3 {fill:#45AB45;fill-opacity:0.670588}
    .fil2 {fill:#99BA2E;fill-opacity:0.670588}
    .fil7 {fill:#CF8721;fill-opacity:0.670588}
    .fil8 {fill:#E60A80;fill-opacity:0.670588}
   ]]>
  </style>
 </defs>
 <g id="Livello_x0020_1">
  <metadata id="CorelCorpID_0Corel-Layer"/>
  <g id="_635555968">
   <path id="_635556448" class="fil0 str0" d="M180.175 99.3915c9.5392,14.6023 14.6188,31.6668 14.6188,49.1085 0,49.5913 -40.2024,89.7937 -89.7937,89.7937 -49.5913,0 -89.7937,-40.2024 -89.7937,-89.7937 0,-49.5913 40.2024,-89.7937 89.7937,-89.7937 24.4132,0 47.7739,9.9406 64.7012,27.5313"/>
   <path id="_635556520" class="fil1" d="M105.004 230.482c-45.2786,0 -81.9849,-36.7057 -81.9849,-81.985 0,-45.2792 36.7063,-81.9849 81.9849,-81.9849 45.28,0 81.985,36.7057 81.985,81.9849 0,45.2793 -36.705,81.985 -81.985,81.985z"/>
   <path id="_635556232" class="fil2" d="M77.6742 162.099l-0.469 0.1966c20.9247,-25.9347 49.0333,-46.8573 78.8399,-61.9617 4.5307,-2.296 15.8252,-5.3417 20.0634,-2.5098 -0.3649,3.1919 -12.3904,8.6599 -15.1368,10.1461 -23.22,12.5746 -33.0731,27.7528 -51.4328,47.2719 -8.1046,8.615 -12.0021,15.4533 -19.1204,23.6745 -4.6431,3.5195 -11.2621,2.6084 -14.7817,-2.036 -3.5188,-4.6444 -2.6077,-11.2627 2.0374,-14.7816z"/>
   <path id="_635556016" class="fil3" d="M42.3935 174.177c13.789,-24.5463 67.3675,-59.1787 94.5781,-71.7395 5.2948,-2.4443 34.9807,-15.9175 38.5182,-10.9123 -0.9125,1.8007 -3.6306,2.6594 -5.0293,3.4187 -14.936,8.1143 -18.9446,11.7836 -33.5586,21.0799 -19.7777,12.5801 -66.8606,49.2658 -75.7846,67.8855 -2.6877,5.1707 -9.0571,7.1832 -14.2284,4.4955 -5.1707,-2.6878 -7.1825,-9.0578 -4.4954,-14.2278z"/>
   <path id="_635556184" class="fil4" d="M58.4006 94.2933c2.3699,-0.4366 15.5513,-8.215 19.9281,-10.0365 11.8132,-4.9161 24.2546,-8.7032 36.8995,-10.382l-5.6293 8.2426c-4.6354,4.9513 -17.8714,12.5166 -23.8442,16.7761 -6.7549,4.8169 -14.2402,12.9857 -21.7903,15.7548 -5.6217,1.5367 -11.4241,-1.7746 -12.9594,-7.3956 -1.5373,-5.6211 1.7739,-11.4235 7.3956,-12.9594z"/>
   <path id="_635556304" class="fil5" d="M62.9927 111.013c8.4659,-3.732 32.8129,-14.4381 39.5292,-14.6188l4.9355 0.8621c-3.9692,8.5977 -11.4552,13.6229 -18.9287,19.6812 -8.7944,7.1287 -11.9546,10.7614 -22.329,14.7623 -5.8258,0.1558 -10.673,-4.441 -10.8282,-10.2662 -0.1317,-4.9078 3.1119,-9.1233 7.6212,-10.4206z"/>
   <path id="_635555488" class="fil6" d="M61.0366 133.711l-0.2379 -0.1814c18.2066,-14.2022 32.1958,-22.6689 53.7191,-31.2901 1.996,-0.7994 8.6164,-3.9617 11.5738,-2.8933 3.6257,2.8271 -26.9195,26.3402 -29.5273,28.4728 -10.7089,8.7584 -17.0045,16.9479 -26.9105,25.1546 -5.319,2.3795 -11.5608,-0.0035 -13.9395,-5.3224 -2.3808,-5.3196 0.0034,-11.5607 5.3223,-13.9402z"/>
   <path id="_635555440" class="fil7" d="M98.6203 159.138c-0.3069,0.0993 -0.5531,0.2269 -0.6566,0.3897 0.2049,-0.1152 0.4248,-0.2463 0.6566,-0.3897zm0.3428 -0.2166c3.9547,-2.5332 11.0951,-8.3936 15.9858,-11.4986 19.8736,-12.6173 18.6894,-17.6176 38.1816,-27.5858 4.5561,-2.3298 10.7413,-5.7059 15.385,-2.7271l-1.4379 1.3877c-14.523,11.9918 -5.5315,6.2521 -17.5391,20.5675 -11.7965,14.0657 -16.3499,16.5609 -29.6728,28.0506 -7.3501,6.339 -9.0067,11.6297 -19.2136,12.7732 -5.8272,0 -10.5516,-4.7244 -10.5516,-10.5517 0,-5.252 3.8382,-9.6074 8.8626,-10.4158z"/>
   <path id="_635555344" class="fil8" d="M119.67 162.342c-0.2553,0.2124 -0.4987,0.4421 -0.7277,0.6918 1.8987,-4.0568 3.7802,-11.3731 15.1154,-20.7992 7.7087,-6.4107 25.3119,-15.5003 35.0339,-17.499l7.997 -0.6793 -4.6727 6.5997c-8.9592,9.744 -21.4516,14.3878 -30.3363,28.6258 -6.3073,10.1076 -2.0739,17.5569 -13.5132,21.373 -5.7266,1.0774 -11.2421,-2.6918 -12.3194,-8.4191 -0.627,-3.3312 0.3869,-6.5907 2.4712,-8.9467 -0.4683,0.5614 -0.8718,1.218 -1.1904,1.9987 0.5427,-0.5676 0.9738,-1.3166 1.4035,-2.2318 0.2338,-0.2497 0.4807,-0.4876 0.7387,-0.7139zm-0.7277 0.6918c-0.0759,0.0828 -0.1503,0.1676 -0.2241,0.2552 0.0703,-0.0793 0.1414,-0.1566 0.2131,-0.2331l0.011 -0.0221z"/>
   <path id="_635555824" class="fil9" d="M127.189 139.648c2.1891,0 3.963,2.0346 3.963,4.5438 0,2.5098 -1.7739,4.5437 -3.963,4.5437 -2.1898,0 -3.965,-2.0339 -3.965,-4.5437 0,-2.5092 1.7752,-4.5438 3.965,-4.5438zm-41.1507 8.2895l0 0.0145 0 4.0802 1.7918 0.4663 0 -4.0948c0,-0.0717 -0.06,-0.1696 -0.1538,-0.2683 -0.1752,-0.1834 -0.4373,-0.3365 -0.7421,-0.4158 -0.3049,-0.0794 -0.567,-0.0628 -0.7421,0.0289 -0.0952,0.0497 -0.1538,0.1166 -0.1538,0.189zm-2.3167 -0.6359c0.0096,-0.8014 0.409,-1.4077 1.0483,-1.7429 0.5683,-0.2972 1.3346,-0.3724 2.1643,-0.1565 0.8297,0.2152 1.5946,0.6904 2.1636,1.2835 0.6483,0.6766 1.049,1.5042 1.049,2.3215l0 5.2534c0,0.6401 -0.518,1.0235 -1.1587,0.8573l-4.1092 -1.0697c-0.6394,-0.1669 -1.1587,-0.8207 -1.1587,-1.4608l0 -5.2534 0.0014 -0.0324zm9.5923 2.3526l0 0.0151 0 4.0803 1.7918 0.4662 0 -4.0954c0,-0.0717 -0.0586,-0.169 -0.1538,-0.2683 -0.1752,-0.1828 -0.4373,-0.3366 -0.7421,-0.4159 -0.3049,-0.0793 -0.5656,-0.0621 -0.7421,0.0297 -0.0938,0.0496 -0.1538,0.1158 -0.1538,0.1883zm-2.3167 -0.6359c0.011,-0.8008 0.409,-1.4077 1.0497,-1.7422 0.5683,-0.2973 1.3346,-0.3731 2.1629,-0.1573 0.8297,0.2159 1.5966,0.6904 2.1643,1.2836 0.6476,0.6765 1.0497,1.5042 1.0497,2.3215l0 5.2541c0,0.64 -0.5194,1.0235 -1.1587,0.8566l-4.1092 -1.0697c-0.6408,-0.1669 -1.1587,-0.8201 -1.1587,-1.4601l0 -5.2541 0 -0.0324zm-5.8611 -48.9637c0.0097,-0.7897 0.4056,-1.5311 1.0394,-2.085 0.5538,-0.4834 1.307,-0.8366 2.136,-0.9414 0.7794,-0.1 1.6256,0.0014 2.2953,0.4325 0.6532,0.42 1.0463,1.0828 1.0504,1.8614 0.0124,1.6188 0.0269,3.2244 0.0421,4.8424 0.0041,0.5435 -0.3628,1.0042 -0.8635,1.1408 -0.1648,0.0524 -4.2582,1.3614 -4.2472,1.398 -0.6172,0.1965 -1.0938,-0.1449 -1.2897,-0.7628 -0.0503,-0.158 -0.1062,-0.3787 -0.0903,-0.5338l-0.0725 -5.3521zm2.5788 -0.3248c-0.1476,0.1296 -0.2414,0.2579 -0.2421,0.3524 -0.0158,1.2856 -0.0317,2.5719 -0.0489,3.8575 0.6372,-0.2207 1.2835,-0.4194 1.927,-0.6228 -0.0221,-2.7333 -0.0048,-0.5208 -0.0297,-3.8982 -0.1041,-0.0579 -0.2669,-0.0903 -0.4766,-0.089 -0.0751,0.0007 -0.1565,0.0062 -0.2407,0.0173 -0.3517,0.0441 -0.6655,0.1883 -0.889,0.3828zm-12.8208 46.5248c0,-0.7566 -0.6131,-1.3697 -1.3697,-1.3697 -0.7573,0 -1.3704,0.6131 -1.3704,1.3697l0 6.6432c0,0.7566 0.6131,1.3697 1.3704,1.3697 0.7566,0 1.3697,-0.6131 1.3697,-1.3697l0 -6.6432zm-3.4795 -2.1263c0,-0.7573 -0.6138,-1.3704 -1.3711,-1.3704 -0.7566,0 -1.3697,0.6131 -1.3697,1.3704l0 6.6425c0,0.7566 0.6131,1.3697 1.3697,1.3697 0.7573,0 1.3711,-0.6131 1.3711,-1.3697l0 -6.6425zm-6.2148 -10.2951l0 26.714 0.0007 0.0504c0.0241,5.2693 4.6485,9.9357 12.1145,13.2242 1.0483,0.4614 2.4843,1.0904 3.5705,1.3946 6.6984,2.3174 15.1203,3.6988 24.2512,3.6988 10.8392,0 20.6771,-1.9463 27.8216,-5.0934 7.4653,-3.2885 12.0911,-7.9549 12.1139,-13.2242 0.0014,-0.0262 0.0014,-0.0524 0.0014,-0.0787l0 -18.5831 0 -20.0419 0 -0.018 0 -0.002 0 -0.0035 0 -0.0021 0 -0.0034 0 -0.0021 0 -1.7084c0,-0.3069 -0.8835,-3.027 -1.0222,-3.3988 -0.5441,-1.4497 -1.2835,-2.7202 -2.2132,-3.9416 -1.3725,-2.1153 -7.7653,-8.1391 -9.9323,-10.4034 -0.3345,-0.4062 -0.8891,-0.5993 -1.4291,-0.4483l-8.0943 2.2739c-0.6214,0.1304 -1.0876,0.6815 -1.0876,1.3415l0 6.5563 -10.3434 -5.9714c-0.4159,-0.2794 -0.969,-0.3201 -1.4353,-0.058l0.0007 0.0021 -13.4822 7.5763 0 -21.393 0 0c0,-0.3504 -0.1338,-0.7014 -0.4021,-0.969l-11.2965 -11.2959c-0.0876,-0.0917 -0.189,-0.1731 -0.3049,-0.24 -0.6552,-0.3786 -1.4931,-0.1538 -1.8725,0.5014l0.0035 0.0021 -8.9247 15.4561c-0.1511,0.2255 -0.238,0.4986 -0.2331,0.7911l0.0062 -0.0007 0.4448 23.8566c-1.8518,1.3787 -3.7602,2.9078 -5.2865,4.823 -1.7553,2.2022 -2.9691,4.8569 -2.9691,8.255 0,0.1207 0,0.2421 0,0.3635zm2.7401 26.6871c0,-0.16 0.0166,-0.3476 0,-0.5028l0 -21.9813c0.7125,0.6159 1.5312,1.207 2.4181,1.7615 2.9085,1.8187 6.637,3.3381 9.5247,3.9864l0 28.1445c-0.5007,-0.1986 -0.9897,-0.4021 -1.4649,-0.6118 -6.4735,-2.8505 -10.4779,-6.6631 -10.4779,-10.7592l0 -0.0373zm40.2914 0.4973l0 6.6225c0,0.6966 -0.5207,1.2711 -1.1925,1.3587 -0.7931,0.1772 -1.5849,0.3407 -2.3815,0.5034 -0.7421,0.1463 -1.4635,-0.3372 -1.609,-1.0793 -0.0187,-0.0959 -0.0269,-0.1911 -0.0263,-0.2849l0 -6.6231c0,-0.6877 0.5084,-1.2573 1.1684,-1.3553l0.0669 -0.0131c0.4366,-0.0855 0.3579,-0.0662 0.6069,-0.1172 0.1393,-0.0283 0.4325,-0.0911 0.8525,-0.1814l0.8469 -0.1828 -0.0013 -0.0048c0.7386,-0.1649 1.4704,0.3007 1.6359,1.0393 0.0228,0.1063 0.0338,0.2132 0.0331,0.318zm33.9931 -1.6235c-0.0669,0.0351 -0.7952,0.42 -0.7938,0.4227 -0.6725,0.3476 -1.4987,0.0849 -1.8463,-0.5876 -0.1097,-0.2097 -0.158,-0.4352 -0.1532,-0.6559l0 -6.6169c0,-0.5649 0.3414,-1.0498 0.8298,-1.2594 0.4214,-0.2187 0.8014,-0.4207 1.14,-0.6063 0.2462,-0.1338 0.558,-0.309 0.9318,-0.5221l0 -1.8884c-0.4069,0.5552 -0.8463,1.0911 -1.3201,1.667 -0.3269,0.3987 -0.6179,0.6435 -1.169,0.6435 -0.7573,0 -1.3711,-0.6131 -1.3711,-1.3704l0 -10.1917 -9.2771 -2.4856c-0.0538,-0.0111 -0.1056,-0.0255 -0.1573,-0.0421l-2.9333 -0.7862 -9.7302 9.7302 0 8.4005c0.0069,0.5021 -0.2642,0.9883 -0.7408,1.2346l-0.4862 0.3358c-2.2746,1.176 -4.2582,1.7312 -6.6735,2.3788 -2.3236,0.6221 -4.6134,1.0201 -6.6494,1.2256l0 17.6914c1.0904,0.0414 2.1953,0.0635 3.312,0.0635 10.4606,0 19.9046,-1.8567 26.7195,-4.8583 4.3548,-1.918 11.2234,-5.9865 10.4158,-11.6365 -0.0131,-0.0945 -0.0296,-0.1904 -0.0476,-0.2862zm-4.5113 2.376c-0.2545,0.1248 -2.3932,1.1207 -2.3932,1.1228 -0.6911,0.3069 -1.5015,-0.0042 -1.8084,-0.6952 -0.0849,-0.189 -0.1214,-0.3876 -0.1186,-0.5814l0 -6.6184c0,-0.5986 0.3834,-1.1083 0.9193,-1.2945 0.3966,-0.1773 0.7676,-0.3463 1.1139,-0.5083 0.1014,-0.0476 1.2097,-0.567 1.2021,-0.5815 0.6801,-0.3324 1.5015,-0.051 1.8339,0.6284 0.098,0.2013 0.1435,0.4158 0.1393,0.6262l0 6.619c0,0.587 -0.3689,1.0884 -0.8883,1.2829zm-6.1038 2.7856c-0.2642,0.1111 -2.4015,0.8835 -2.3912,0.9684 -0.7055,0.2724 -1.4987,-0.0793 -1.7704,-0.7856 -0.0662,-0.171 -0.0959,-0.3476 -0.0918,-0.52l0 -6.6156c0,-0.6221 0.4139,-1.147 0.9815,-1.3146 0.3503,-0.1358 0.7255,-0.2841 1.1235,-0.4448 0.0931,-0.0373 1.2056,-0.4862 1.1994,-0.4987 0.6973,-0.2945 1.5008,0.0325 1.7959,0.7297 0.0759,0.1794 0.1097,0.3663 0.1083,0.549l0 6.6266c0,0.6118 -0.4021,1.1298 -0.9552,1.3056zm-6.0845 1.9933c-0.2552,0.0924 -2.4057,0.8393 -2.4057,0.8393 -0.7179,0.2387 -1.4932,-0.1503 -1.7318,-0.8683 -0.0497,-0.1497 -0.071,-0.3021 -0.0697,-0.4511l0 -6.6231c0,-0.6511 0.4539,-1.1966 1.0629,-1.336 0.3083,-0.1027 0.6779,-0.2296 1.1062,-0.3793 0.1062,-0.0366 1.2042,-0.4193 1.1994,-0.4317 0.7104,-0.2594 1.498,0.1069 1.7567,0.8172 0.0614,0.167 0.0876,0.3373 0.0834,0.5042l0 6.6087c0,0.629 -0.4717,1.1407 -1.0014,1.3201zm-6.0769 1.4152c-0.4083,0.1269 -0.7966,0.2469 -1.1649,0.3573 -0.4435,0.1324 -0.8621,0.2552 -1.258,0.3676l0 0.0014c-0.727,0.2069 -1.4856,-0.2152 -1.6926,-0.9428 -0.0386,-0.1366 -0.0558,-0.2745 -0.0517,-0.409l0 -6.6087c0,-0.649 0.4511,-1.1925 1.0559,-1.3346 0.4152,-0.1179 0.8022,-0.2317 1.1643,-0.34 0.0993,-0.029 1.209,-0.3635 1.2062,-0.3724 0.7228,-0.2262 1.4918,0.1745 1.7181,0.8966 0.0462,0.1469 0.0662,0.2952 0.0641,0.4407l0 6.6128c0,0.6442 -0.4442,1.1835 -1.0414,1.3311zm-6.0866 0.4987c-0.249,0.0662 -2.4312,0.6076 -2.4298,0.6173 -0.7352,0.1758 -1.4746,-0.278 -1.6511,-1.0139 -0.0276,-0.1166 -0.0394,-0.2338 -0.038,-0.3483l0 -6.6135c0,-0.6897 0.5104,-1.2601 1.1725,-1.3559 0.2359,-0.0573 2.3146,-0.5828 2.3119,-0.5939 0.7311,-0.1958 1.4821,0.238 1.678,0.9691 0.0338,0.1282 0.049,0.2565 0.0462,0.3827l0 6.6149c0,0.6607 -0.4676,1.2118 -1.0897,1.3415zm-35.1194 -66.7337c0.0097,-0.7897 0.4056,-1.5305 1.0394,-2.085 0.5538,-0.4828 1.3077,-0.8366 2.1353,-0.9414 0.1759,-0.0228 0.349,-0.0345 0.5159,-0.0359 0.698,-0.0055 1.3111,0.1669 1.7808,0.469 0.58,0.3725 0.9476,0.9256 1.0325,1.596 0.0117,0.0841 0.0172,0.1731 0.0186,0.2648l0.0414 4.8424c0.0034,0.5442 -0.3628,1.0042 -0.8642,1.1407 -0.1642,0.0525 -4.2596,1.3622 -4.2472,1.3988 -0.6172,0.1958 -1.2766,-0.1463 -1.4732,-0.7635 -0.0496,-0.1573 -0.0648,-0.3187 -0.0489,-0.4732l0.0338 -2.6091 0.0186 -1.4028 0.0172 -1.4008zm2.5795 -0.3249c-0.1483,0.1304 -0.2407,0.2587 -0.2428,0.3525l-0.0172 1.4007 -0.0173 1.4029 -0.0144 1.0538c0.2282,-0.0793 0.4524,-0.1551 0.6683,-0.2234l1.2587 -0.3993c-0.0221,-2.7147 -0.0042,-0.3814 -0.02,-2.6609l-0.0083 -1.1497c-0.0028,-0.0352 -0.0124,-0.0711 -0.0573,-0.1138 -0.1041,-0.0586 -0.211,-0.0642 -0.4207,-0.0628 -0.4034,0.0035 -0.8228,0.1324 -1.129,0.4zm28.2493 14.8934l0 4.8244 2.1187 0 0 -4.8424c0,-0.0855 -0.0696,-0.1827 -0.1807,-0.2703 -0.2076,-0.1628 -0.5165,-0.2635 -0.8786,-0.2635 -0.3601,0 -0.669,0.1007 -0.8766,0.2635 -0.0945,0.0738 -0.1814,0.1627 -0.1828,0.2883zm-2.7395 -0.0566c0.0124,-0.9511 0.4842,-1.7911 1.2415,-2.3836 0.6717,-0.5262 1.5766,-0.8518 2.5574,-0.8518 0.9807,0 1.8877,0.3256 2.5594,0.8518 0.7663,0.6007 1.2408,1.4553 1.2408,2.4222l0 6.2128c0,0.7566 -0.6138,1.3704 -1.3697,1.3704l-4.859 0c-0.7579,0 -1.3711,-0.6138 -1.3711,-1.3704l0.0007 -6.2514zm21.7689 2.976l0 13.5988 -1.9801 -0.5304c-0.4745,-0.1545 -1.0173,-0.0434 -1.3953,0.3338l-10.6896 10.6896c-0.2476,0.2476 -0.4014,0.5904 -0.4014,0.9691l0 8.1391c-1.8739,0.8973 -3.8837,1.6015 -5.8672,2.1332 -2.0774,0.5566 -4.1154,0.9208 -5.9418,1.1194l0 -18.6515c0.0752,-0.3 -0.2489,-0.9559 -0.5262,-1.0787l-5.2638 -4.114 0 -15.0037 14.1443 -7.9487c5.9811,3.4533 11.9463,6.8942 17.9211,10.344zm2.7402 14.3333l0 -15.0974c0.0069,-0.4801 -0.2393,-0.9498 -0.6849,-1.207l-6.1204 -3.5271 0 -7.1053 6.3922 -1.7939 9.2253 9.6337c0.7815,1.0242 1.3974,2.0746 1.8395,3.2547 0.449,1.1959 0.7304,2.5498 0.8407,4.1733l0 18.1825c-0.2697,1.7987 -0.6456,3.0864 -1.1194,4.1306l0 -6.7942c0.0104,-0.6131 -0.3966,-1.1787 -1.0152,-1.3449l-9.3578 -2.505zm-37.5464 -3.8692l-11.1069 -8.6936c-0.2448,-0.2276 -0.5738,-0.3669 -0.9332,-0.3669 -0.7566,0 -1.3711,0.6138 -1.3711,1.3704l0 18.9811c-2.5029,-0.6407 -5.6003,-1.9477 -8.0798,-3.4974 -2.2139,-1.3842 -3.863,-2.8657 -3.863,-4.0051 0,-2.6857 0.9684,-4.7954 2.3691,-6.5528 1.785,-2.2387 4.7093,-4.2058 5.3376,-4.7403 0.4062,-0.2979 0.5987,-0.7786 0.5511,-1.2469l-0.4504 -24.0622 7.8894 -13.6663 9.6572 9.6564 0 36.8236zm5.79 7.9984l0 19.4819 0 18.8025c-6.108,-0.4304 -11.7166,-1.5008 -16.4603,-3.0498l0 -48.1167c5.4872,4.294 10.9731,8.5881 16.4603,12.8821zm28.1051 3.9499c1.2346,0 2.2346,1.147 2.2346,2.5623 0,1.4152 -1,2.5622 -2.2346,2.5622 -1.2345,0 -2.2353,-1.147 -2.2353,-2.5622 0,-1.4153 1.0008,-2.5623 2.2353,-2.5623z"/>
   <path id="_635555272" class="fil10" d="M67.3805 185.175l9.0474 0 0 2.6133 -5.3651 0 0 2.9298 5.1272 0 0 2.6133 -5.1272 0 0 5.5824 -3.6823 0 0 -13.7388zm11.0075 0l3.6623 0 0 7.9977c0,0.5842 0.0421,1.0891 0.1311,1.5112 0.0862,0.4255 0.2152,0.7655 0.3828,1.0228 0.1786,0.2676 0.4069,0.4655 0.6869,0.5973 0.2766,0.1283 0.6097,0.1945 0.9966,0.1945 0.3959,0 0.7428,-0.069 1.0394,-0.2111 0.2966,-0.1386 0.5435,-0.3531 0.7421,-0.64 0.1973,-0.2773 0.3462,-0.6235 0.4455,-1.0359 0.0987,-0.4159 0.1476,-0.8946 0.1476,-1.4388l0 -7.9977 3.4851 0 0 7.9977c0,1.0098 -0.1193,1.894 -0.36,2.6561 -0.2435,0.7586 -0.6104,1.3925 -1.1056,1.8973 -0.4849,0.5049 -1.0911,0.8808 -1.8243,1.1318 -0.7324,0.2469 -1.5897,0.3725 -2.5698,0.3725 -0.9704,0 -1.8222,-0.1283 -2.5512,-0.3828 -0.7317,-0.2573 -1.3394,-0.6366 -1.8235,-1.1415 -0.4959,-0.5048 -0.8649,-1.138 -1.1132,-1.8973 -0.2469,-0.7553 -0.3718,-1.636 -0.3718,-2.6361l0 -7.9977zm13.2436 0l10.4731 0 0 2.7512 -3.4051 0 0 10.9876 -3.6623 0 0 -10.9876 -3.4057 0 0 -2.7512zm11.9966 0l3.6623 0 0 7.9977c0,0.5842 0.0441,1.0891 0.1324,1.5112 0.0862,0.4255 0.2152,0.7655 0.3835,1.0228 0.1779,0.2676 0.4048,0.4655 0.6855,0.5973 0.278,0.1283 0.6111,0.1945 0.9966,0.1945 0.3959,0 0.7422,-0.069 1.0387,-0.2111 0.298,-0.1386 0.5449,-0.3531 0.7428,-0.64 0.1987,-0.2773 0.3463,-0.6235 0.4456,-1.0359 0.0993,-0.4159 0.149,-0.8946 0.149,-1.4388l0 -7.9977 3.4836 0 0 7.9977c0,1.0098 -0.1179,1.894 -0.3593,2.6561 -0.2449,0.7586 -0.6104,1.3925 -1.1056,1.8973 -0.4842,0.5049 -1.0925,0.8808 -1.8249,1.1318 -0.7318,0.2469 -1.5905,0.3725 -2.5699,0.3725 -0.9697,0 -1.8208,-0.1283 -2.5498,-0.3828 -0.7338,-0.2573 -1.34,-0.6366 -1.8256,-1.1415 -0.4945,-0.5048 -0.8649,-1.138 -1.1111,-1.8973 -0.2483,-0.7553 -0.3738,-1.636 -0.3738,-2.6361l0 -7.9977zm17.9169 2.4146l0 3.5244 1.2863 0c0.3959,0 0.7421,-0.0366 1.0401,-0.1055 0.2966,-0.0724 0.5442,-0.1814 0.7414,-0.3304 0.1986,-0.1386 0.3476,-0.3166 0.4456,-0.5311 0.0993,-0.2179 0.1489,-0.4683 0.1489,-0.7552 0,-0.6138 -0.2179,-1.069 -0.6538,-1.3663 -0.2269,-0.1482 -0.5138,-0.2572 -0.8642,-0.3296 -0.3462,-0.0697 -0.7587,-0.1063 -1.2339,-0.1063l-0.9104 0zm-3.5829 -2.4146l5.4637 0c1.8208,0 3.1671,0.2966 4.0389,0.8904 0.4449,0.2973 0.7787,0.6697 0.9959,1.1153 0.2214,0.449 0.3304,0.9738 0.3304,1.5773 0,0.4455 -0.0593,0.8511 -0.1752,1.2173 -0.1186,0.3662 -0.291,0.6932 -0.518,0.9801 -0.2372,0.2869 -0.5248,0.5248 -0.8621,0.7159 -0.3352,0.1883 -0.7221,0.3338 -1.1573,0.4324 0.3559,0.129 0.6821,0.3793 0.9766,0.7552 0.2897,0.3732 0.547,0.8684 0.7649,1.4822l0 0.0193 1.6435 4.5534 -3.8209 0 -1.2069 -3.7616c-0.0994,-0.3063 -0.2152,-0.5642 -0.3442,-0.7752 -0.131,-0.2076 -0.28,-0.3725 -0.4476,-0.4918 -0.1683,-0.1083 -0.3835,-0.191 -0.6407,-0.2504 -0.2601,-0.0565 -0.5677,-0.0862 -0.9235,-0.0862l-0.5346 0 0 5.3652 -3.5829 0 0 -13.7388zm19.3411 2.336c-0.4752,0 -0.9007,0.0987 -1.28,0.3 -0.3759,0.2049 -0.7091,0.5118 -0.9967,0.927 -0.2876,0.4062 -0.5048,0.8814 -0.6503,1.4256 -0.1476,0.5442 -0.2214,1.158 -0.2214,1.8415 0,0.6828 0.0738,1.2994 0.2214,1.8504 0.1455,0.5511 0.3627,1.0298 0.6503,1.4353 0.2876,0.4062 0.6208,0.7132 0.9967,0.9173 0.3793,0.2083 0.8048,0.3104 1.28,0.3104 0.4752,0 0.9008,-0.1021 1.2808,-0.3104 0.3759,-0.2041 0.709,-0.5111 0.9959,-0.9173 0.2862,-0.4055 0.5014,-0.8807 0.6394,-1.4284 0.142,-0.5448 0.2117,-1.1649 0.2117,-1.8573 0,-0.6835 -0.0697,-1.2973 -0.2117,-1.8415 -0.138,-0.5442 -0.3532,-1.0194 -0.6394,-1.4256 -0.2869,-0.4152 -0.62,-0.7221 -0.9959,-0.927 -0.38,-0.2013 -0.8056,-0.3 -1.2808,-0.3zm0 -2.6726c1.0684,0 2.0195,0.158 2.8533,0.4746 0.8318,0.3172 1.5518,0.7924 2.1553,1.4256 0.6035,0.6435 1.0559,1.4056 1.3525,2.2898 0.3007,0.8814 0.4483,1.8877 0.4483,3.016 0,1.1283 -0.1476,2.1312 -0.4483,3.0126 -0.2966,0.8807 -0.749,1.6394 -1.3525,2.2732 -0.6035,0.6332 -1.3235,1.1084 -2.1553,1.425 -0.8338,0.3172 -1.7849,0.4752 -2.8533,0.4752 -1.0697,0 -2.0222,-0.158 -2.8643,-0.4752 -0.838,-0.3166 -1.5608,-0.7918 -2.1649,-1.425 -0.5925,-0.6338 -1.0422,-1.3925 -1.3449,-2.2732 -0.3035,-0.8814 -0.4559,-1.8843 -0.4559,-3.0126 0,-1.1283 0.1524,-2.1346 0.4579,-3.016 0.3042,-0.8842 0.7594,-1.6463 1.3636,-2.2898 0.6041,-0.6332 1.3221,-1.1084 2.1546,-1.4256 0.8345,-0.3166 1.7842,-0.4746 2.8539,-0.4746z"/>
   <path id="_635555368" class="fil10" d="M72.8587 215.846l0 -13.5215 1.1691 0 0 13.5215 -1.1691 0zm4.4155 0l0 -13.5215 1.1276 0 9.8993 11.7994 0 -11.7994 1.089 0 0 13.5215 -1.0097 0 -10.0172 -11.9572 0 11.9572 -1.089 0zm21.6572 -11.6014c-0.5546,-0.3758 -1.0891,-0.6531 -1.6029,-0.831 -0.2483,-0.0987 -0.4986,-0.1683 -0.7531,-0.2145 -0.2532,-0.0428 -0.5049,-0.0628 -0.7525,-0.0628 -0.4049,0 -0.7752,0.0593 -1.1118,0.1786 -0.3324,0.1187 -0.629,0.2966 -0.8869,0.5339 -0.267,0.2476 -0.4656,0.5214 -0.5966,0.8221 -0.129,0.3 -0.1952,0.6331 -0.1952,0.9994 0,0.2972 0.0427,0.5641 0.129,0.8048 0.0848,0.238 0.2076,0.4525 0.3662,0.6408 0.1683,0.1876 0.4352,0.3855 0.798,0.5972 0.3669,0.2076 0.8255,0.4318 1.3794,0.6697 0.0296,0.0097 0.0689,0.0228 0.1151,0.0428 0.049,0.02 0.1028,0.0462 0.1614,0.0759 0.6339,0.2572 1.1587,0.5048 1.5774,0.7455 0.4165,0.2442 0.729,0.4814 0.9373,0.7194 0.1489,0.1586 0.2765,0.3262 0.3855,0.5083 0.1097,0.1779 0.1986,0.3724 0.2683,0.5807 0.0779,0.1979 0.1386,0.4055 0.1772,0.62 0.0407,0.218 0.0594,0.4387 0.0594,0.6663 0,0.5449 -0.0925,1.0366 -0.2807,1.4753 -0.1876,0.4386 -0.4711,0.831 -0.847,1.178 -0.3759,0.3462 -0.8014,0.6069 -1.2808,0.7848 -0.4752,0.1752 -1.0055,0.2642 -1.5897,0.2642 -0.2869,0 -0.578,-0.0262 -0.8711,-0.0759 -0.2945,-0.0496 -0.5842,-0.1221 -0.8718,-0.2214 -0.2869,-0.0986 -0.5738,-0.2276 -0.8635,-0.3828 -0.2876,-0.151 -0.5807,-0.3296 -0.8787,-0.5276l0 -1.3063c0.3166,0.2469 0.6277,0.4649 0.9304,0.6497 0.3035,0.1883 0.5946,0.3401 0.8711,0.4587 0.5752,0.2379 1.1291,0.3566 1.6636,0.3566 0.4455,0 0.8414,-0.0594 1.1904,-0.1821 0.3476,-0.1187 0.6504,-0.3035 0.9076,-0.5504 0.5146,-0.4752 0.7718,-1.129 0.7718,-1.9601 0,-0.3069 -0.0421,-0.5842 -0.131,-0.8346 -0.0862,-0.2476 -0.2152,-0.4717 -0.3828,-0.6703 -0.1786,-0.1973 -0.469,-0.4118 -0.8752,-0.6401 -0.4014,-0.2276 -0.9173,-0.4683 -1.5401,-0.7255 -0.6442,-0.2676 -1.1877,-0.5346 -1.6298,-0.8049 -0.4462,-0.2676 -0.7855,-0.5414 -1.0228,-0.8187 -0.238,-0.2669 -0.4166,-0.5773 -0.5345,-0.9269 -0.1193,-0.3497 -0.1787,-0.7359 -0.1787,-1.1518 0,-0.5242 0.089,-1.0029 0.2711,-1.4353 0.1773,-0.4324 0.4511,-0.8111 0.818,-1.138 0.3559,-0.3366 0.7718,-0.5911 1.2435,-0.7593 0.4752,-0.1683 1.0035,-0.2504 1.5877,-0.2504 0.2669,0 0.5311,0.02 0.7883,0.0559 0.2573,0.04 0.5076,0.0924 0.7559,0.162 0.2573,0.069 0.5104,0.1614 0.7621,0.2773 0.2511,0.1152 0.5049,0.2469 0.7615,0.3959l0 1.2069zm2.7518 11.6014l0 -13.5215 1.1684 0 0 13.5215 -1.1684 0zm4.4148 0l0 -13.5215 7.3253 0 0 0.8711 -6.237 0 0 5.3652 6.0383 0 0 0.8711 -6.0383 0 0 5.5037 6.3956 0 0 0.9104 -7.4839 0zm9.7599 0l0 -13.5215 1.129 0 5.0472 6.2363 5.0293 -6.2363 1.1477 0 0 13.5215 -1.1084 0 0 -11.9379 -5.0686 6.2955 -5.0879 -6.2955 0 11.9379 -1.0883 0zm15.5202 0l0 -13.5215 7.326 0 0 0.8711 -6.2369 0 0 5.3652 6.0383 0 0 0.8711 -6.0383 0 0 5.5037 6.3955 0 0 0.9104 -7.4846 0z"/>
  </g>
 </g>
</svg>
